<svg id="visual" viewBox="0 0 960 540" width="960" height="540" xmlns="http://www.w3.org/2000/svg" xmlns:xlink="http://www.w3.org/1999/xlink" version="1.1"><rect x="0" y="0" width="960" height="540" fill="#ffffff"></rect><path d="M0 424L22.8 427C45.7 430 91.3 436 137 445.7C182.7 455.3 228.3 468.7 274 465.5C319.7 462.3 365.3 442.7 411.2 432C457 421.3 503 419.7 548.8 420.2C594.7 420.7 640.3 423.3 686 425.8C731.7 428.3 777.3 430.7 823 436C868.7 441.3 914.3 449.7 937.2 453.8L960 458L960 541L937.2 541C914.3 541 868.7 541 823 541C777.3 541 731.7 541 686 541C640.3 541 594.7 541 548.8 541C503 541 457 541 411.2 541C365.3 541 319.7 541 274 541C228.3 541 182.7 541 137 541C91.3 541 45.7 541 22.8 541L0 541Z" fill="#0152a3" stroke-linecap="round" stroke-linejoin="miter"></path></svg>