<svg id="visual" viewBox="0 0 960 540" width="960" height="540"
    xmlns="http://www.w3.org/2000/svg"
    xmlns:xlink="http://www.w3.org/1999/xlink" version="1.1">
    <path d="M0 34L11.5 40.3C23 46.7 46 59.3 68.8 63.8C91.7 68.3 114.3 64.7 137.2 58.7C160 52.7 183 44.3 205.8 41.2C228.7 38 251.3 40 274.2 44.3C297 48.7 320 55.3 342.8 53.7C365.7 52 388.3 42 411.2 38.8C434 35.7 457 39.3 480 47.3C503 55.3 526 67.7 548.8 69.8C571.7 72 594.3 64 617.2 58.7C640 53.3 663 50.7 685.8 47.2C708.7 43.7 731.3 39.3 754.2 43.3C777 47.3 800 59.7 822.8 63.2C845.7 66.7 868.3 61.3 891.2 55.2C914 49 937 42 948.5 38.5L960 35L960 0L948.5 0C937 0 914 0 891.2 0C868.3 0 845.7 0 822.8 0C800 0 777 0 754.2 0C731.3 0 708.7 0 685.8 0C663 0 640 0 617.2 0C594.3 0 571.7 0 548.8 0C526 0 503 0 480 0C457 0 434 0 411.2 0C388.3 0 365.7 0 342.8 0C320 0 297 0 274.2 0C251.3 0 228.7 0 205.8 0C183 0 160 0 137.2 0C114.3 0 91.7 0 68.8 0C46 0 23 0 11.5 0L0 0Z" fill="#ffffff" stroke-linecap="round" stroke-linejoin="miter"></path>
</svg>