<svg id="visual" viewBox="0 0 900 600" width="900" height="600" xmlns="http://www.w3.org/2000/svg" xmlns:xlink="http://www.w3.org/1999/xlink" version="1.1"><rect x="0" y="0" width="900" height="600" fill="#fff"></rect><path d="M0 102L21.5 94.8C43 87.7 86 73.3 128.8 68C171.7 62.7 214.3 66.3 257.2 76.5C300 86.7 343 103.3 385.8 113.3C428.7 123.3 471.3 126.7 514.2 119.3C557 112 600 94 642.8 88C685.7 82 728.3 88 771.2 84.7C814 81.3 857 68.7 878.5 62.3L900 56L900 0L878.5 0C857 0 814 0 771.2 0C728.3 0 685.7 0 642.8 0C600 0 557 0 514.2 0C471.3 0 428.7 0 385.8 0C343 0 300 0 257.2 0C214.3 0 171.7 0 128.8 0C86 0 43 0 21.5 0L0 0Z" fill="#0152A3" stroke-linecap="round" stroke-linejoin="miter"></path></svg>