<?xml version="1.0" encoding="utf-8"?>
<svg viewBox="201.02 269.29 1569.29 941.31"
  xmlns="http://www.w3.org/2000/svg">
  <g transform="matrix(0.1, 0, 0, -0.1, 0, 1478)" fill="#000000" stroke="none">
    <path d="M15515 11713 c-131 -208 -278 -439 -325 -513 -48 -74 -89 -140 -93 -147 -5 -7 136 -103 403 -273 226 -143 417 -263 425 -266 15 -6 4 -22 263 386 341 536 412 650 412 660 0 5 -9 14 -21 21 -12 6 -195 121 -408 256 -212 136 -393 248 -401 250 -10 3 -87 -110 -255 -374z m629 51 c227 -144 354 -230 349 -237 -10 -18 -574 -910 -578 -915 -2 -2 -83 48 -181 111 -99 62 -259 165 -357 227 -98 62 -176 118 -174 124 8 21 578 916 583 916 1 0 163 -102 358 -226z" style="fill: rgb(1, 82, 163);"/>
    <path d="M2883 11595 c-441 -80 -784 -430 -863 -881 -20 -115 -8 -349 23 -454 38 -127 62 -175 329 -660 302 -547 398 -722 503 -915 45 -82 268 -487 495 -900 227 -412 626 -1139 887 -1615 262 -476 495 -900 519 -943 l43 -78 -42 -18 c-89 -39 -1085 -474 -1134 -496 -29 -13 -53 -28 -53 -33 0 -6 138 -324 306 -708 168 -385 332 -760 364 -834 90 -209 167 -380 172 -386 3 -2 412 174 909 393 l904 398 512 5 512 5 -55 124 c-30 68 -54 128 -54 132 0 5 2123 9 4784 9 4160 0 4794 2 4867 15 508 89 879 532 879 1048 0 241 -36 352 -227 697 -309 562 -384 703 -381 718 3 9 106 177 230 372 261 412 264 417 312 538 63 156 80 252 79 447 0 228 -25 338 -123 541 -99 204 -236 354 -455 499 -184 122 -707 452 -727 460 -12 5 -70 -80 -249 -364 -129 -204 -237 -371 -241 -371 -4 0 -24 33 -46 73 -70 127 -590 1075 -689 1255 -53 95 -99 174 -103 177 -4 3 -99 -139 -211 -315 -111 -176 -206 -320 -211 -320 -4 0 -112 67 -240 148 -128 82 -339 215 -468 297 -129 82 -241 154 -248 160 -11 10 -3 28 41 96 30 46 141 221 247 389 106 168 238 374 292 459 l98 155 -42 43 c-24 24 -81 75 -129 114 -349 287 -821 484 -1268 529 -167 16 -9954 12 -10048 -5z m2224 -566 c64 -24 113 -99 113 -174 0 -83 -59 -163 -138 -185 -51 -14 -1623 -14 -1675 1 -47 13 -106 63 -123 106 -17 39 -18 111 -3 150 13 34 44 70 84 94 29 18 68 19 872 19 572 0 851 -3 870 -11z m7572 -10 c55 -30 84 -80 89 -151 7 -100 -40 -171 -133 -197 -53 -15 -825 -15 -878 0 -47 13 -106 63 -123 106 -39 92 9 217 96 252 15 6 199 10 469 10 429 1 444 0 480 -20z m1175 -758 c3 -4 -56 -104 -131 -222 -75 -118 -137 -222 -137 -231 -1 -20 1083 -714 1094 -701 8 9 325 510 355 561 11 17 22 32 26 32 4 0 102 -174 219 -387 117 -214 296 -538 397 -721 l183 -334 -206 -326 c-114 -180 -317 -500 -451 -711 -135 -211 -241 -387 -236 -391 4 -4 64 -42 133 -85 69 -43 186 -117 260 -165 74 -48 245 -156 380 -242 135 -85 412 -262 617 -392 205 -130 378 -236 385 -236 7 1 72 93 143 206 72 113 134 206 138 207 11 2 417 -732 492 -888 86 -178 119 -363 95 -535 -6 -47 -14 -95 -17 -108 l-5 -22 -5400 2 -5400 3 -72 163 c-39 89 -75 161 -80 159 -6 -2 -43 -50 -83 -108 -40 -57 -76 -105 -81 -107 -10 -3 -21 19 -144 303 -96 220 -221 505 -275 628 -14 31 -30 57 -35 57 -9 0 -795 -341 -1038 -450 -47 -21 -88 -35 -92 -32 -4 4 -41 70 -84 147 -42 77 -111 203 -154 280 -42 77 -218 397 -390 710 -172 314 -385 701 -473 860 -87 160 -200 364 -250 455 -50 91 -136 248 -192 350 -1181 2143 -1236 2245 -1219 2272 7 11 11721 10 11728 -1z m2841 -1461 c127 -80 284 -180 350 -222 233 -148 364 -288 473 -503 133 -265 149 -626 40 -909 -42 -109 -61 -142 -272 -474 -100 -158 -265 -417 -366 -577 -101 -159 -187 -294 -191 -299 -4 -5 -106 53 -226 129 -120 76 -283 180 -363 230 -80 51 -251 159 -380 241 -129 83 -337 215 -462 294 -126 80 -228 148 -228 153 0 4 78 130 173 280 96 149 245 385 332 522 87 138 236 372 330 520 94 149 227 358 295 465 68 107 144 226 168 263 l44 68 26 -17 c15 -10 131 -84 257 -164z m-10647 -3367 c289 -657 362 -830 359 -844 -4 -16 -161 -245 -555 -814 -107 -154 -197 -286 -199 -292 -4 -10 43 -13 203 -15 l208 -3 -450 -197 c-1015 -445 -1138 -498 -1144 -491 -4 5 -43 91 -87 193 -218 500 -473 1082 -538 1230 -151 344 -158 361 -149 370 5 5 432 194 949 420 517 227 1026 449 1130 495 105 46 195 84 201 85 7 0 39 -62 72 -137z m765 -1108 c80 -181 186 -424 237 -540 51 -115 94 -216 97 -222 4 -10 -135 -13 -676 -13 l-681 0 92 135 c235 341 694 1003 717 1035 l25 34 22 -49 c12 -28 87 -198 167 -380z" style="fill: rgb(1, 82, 163);"/>
    <path d="M9253 9835 c-105 -32 -212 -130 -274 -249 l-34 -66 -225 0 c-295 0 -533 -17 -755 -55 -102 -17 -263 -52 -275 -60 -5 -3 -44 -15 -86 -26 -230 -60 -551 -195 -690 -290 -95 -64 -136 -145 -135 -260 2 -138 29 -186 170 -298 135 -107 273 -195 436 -277 90 -45 139 -75 138 -85 -1 -8 -15 -50 -31 -94 -52 -140 -67 -232 -67 -415 0 -181 12 -252 67 -410 151 -429 523 -772 1077 -995 278 -111 721 -205 971 -205 120 0 191 14 365 70 83 27 180 54 216 61 60 11 69 10 143 -16 91 -32 136 -31 256 5 80 24 105 23 195 -10 53 -20 66 -21 112 -10 52 11 91 40 123 92 9 15 37 45 62 67 25 23 53 59 62 81 9 22 20 40 26 40 5 0 47 -15 92 -34 104 -42 729 -295 861 -348 66 -26 106 -37 120 -32 12 4 81 37 152 74 72 37 442 223 822 415 638 319 696 351 736 395 24 26 49 66 55 88 9 29 12 248 12 829 l0 790 -22 33 c-37 53 -72 74 -125 73 -43 0 -109 -31 -576 -267 -291 -147 -530 -266 -532 -264 -1 1 -19 35 -38 74 -68 136 -156 255 -282 379 -221 219 -466 364 -804 475 -169 56 -291 83 -486 111 -77 11 -143 23 -146 27 -3 4 -11 34 -18 67 -17 91 -94 240 -163 315 -69 76 -209 159 -303 180 -71 16 -230 13 -300 -5 -78 -21 -156 -57 -216 -100 l-49 -35 -52 34 c-83 52 -166 91 -256 120 -68 21 -102 26 -185 25 -56 0 -121 -6 -144 -14z m-580 -391 c3 -3 -9 -26 -26 -51 -28 -39 -32 -52 -31 -106 0 -41 8 -79 23 -111 12 -27 18 -53 14 -57 -14 -12 -252 10 -372 35 -195 40 -492 147 -515 185 -15 23 432 89 684 100 91 5 177 9 191 9 14 1 28 -1 32 -4z m2171 -132 c37 -139 26 -284 -35 -466 -61 -184 -148 -299 -267 -358 -64 -32 -71 -33 -187 -33 -100 0 -132 4 -194 24 -130 43 -254 139 -339 263 -31 45 -33 46 -64 37 -120 -34 -266 21 -339 128 -60 86 -46 168 39 228 41 28 50 30 135 30 51 0 155 -6 232 -14 234 -22 494 3 666 65 91 33 223 95 279 132 25 16 49 26 53 22 4 -4 14 -30 21 -58z m299 -177 c526 -89 929 -286 1221 -595 41 -45 100 -115 129 -158 52 -74 127 -211 127 -232 0 -5 -89 -54 -197 -109 -109 -54 -210 -111 -225 -126 -15 -15 -32 -44 -38 -64 -6 -21 -10 -173 -10 -358 l0 -323 -35 0 c-20 0 -51 7 -70 15 -34 14 -36 13 -52 -13 -24 -39 -43 -52 -76 -52 -82 0 -101 48 -92 229 4 75 11 141 15 146 4 6 13 34 20 64 10 44 10 55 -1 62 -25 15 -34 4 -48 -59 -12 -50 -18 -62 -34 -62 -11 0 -49 -31 -90 -75 -74 -79 -100 -91 -118 -51 -32 70 37 224 153 339 l79 79 -17 50 c-24 73 -105 187 -176 250 -196 171 -502 316 -800 379 -57 12 -104 23 -106 24 -2 2 17 29 42 60 52 63 102 158 135 255 30 86 61 234 61 291 0 25 3 49 7 52 11 11 44 8 196 -18z m-2553 -120 c0 -2 -7 -30 -15 -62 -22 -85 -6 -151 57 -230 64 -82 207 -171 334 -209 73 -22 228 -22 297 -1 59 19 65 10 47 -61 -30 -124 -145 -264 -260 -319 -76 -36 -147 -59 -157 -50 -6 7 42 81 124 190 24 31 43 66 43 77 0 21 -27 40 -48 33 -16 -6 -83 -94 -169 -223 -143 -215 -183 -311 -183 -438 0 -68 4 -87 31 -140 61 -123 195 -210 426 -276 65 -19 269 -63 453 -99 184 -36 427 -84 540 -106 531 -104 831 -238 919 -409 29 -56 26 -85 -10 -126 -30 -34 -30 -35 -14 -66 13 -25 14 -38 5 -63 -14 -43 -49 -77 -77 -77 -13 0 -23 -5 -23 -12 0 -7 -21 8 -47 33 -27 25 -64 55 -83 67 -53 31 -143 53 -202 50 -45 -3 -53 -6 -56 -24 -3 -19 3 -21 72 -27 91 -7 166 -38 229 -96 24 -23 49 -41 56 -41 29 0 -5 -58 -46 -79 -34 -17 -73 -13 -131 14 -68 31 -98 31 -197 -1 -102 -32 -158 -35 -210 -9 -32 16 -59 20 -135 19 -85 -1 -111 -6 -250 -51 -284 -93 -340 -97 -662 -48 -917 140 -1570 611 -1718 1239 -47 196 -45 368 5 559 79 304 288 603 580 829 50 38 94 78 99 89 10 21 -7 49 -31 49 -29 0 -171 -117 -304 -249 -102 -103 -155 -165 -216 -257 -45 -67 -84 -131 -88 -143 -18 -57 -58 23 -59 119 -2 164 127 331 355 459 72 40 254 105 355 126 156 33 364 56 364 40z m1208 -371 c62 -79 194 -183 275 -218 7 -3 -10 -25 -38 -52 -113 -106 -292 -204 -480 -263 -54 -17 -104 -31 -111 -31 -16 0 -41 72 -54 151 -10 68 -2 177 22 288 11 48 17 57 55 80 24 14 65 42 92 61 45 33 53 35 123 35 l75 0 41 -51z m1002 -251 c221 -48 496 -165 660 -281 94 -66 192 -169 225 -235 l27 -57 -65 -69 c-92 -97 -150 -217 -155 -316 -5 -85 12 -126 59 -151 46 -23 89 -11 148 42 l51 46 0 -39 c0 -21 -4 -43 -8 -49 -4 -7 -63 -41 -132 -77 -69 -36 -190 -100 -270 -142 -80 -42 -195 -101 -256 -132 l-112 -56 -66 42 c-193 122 -430 194 -951 290 -739 137 -951 192 -1076 279 -106 72 -143 134 -142 237 0 69 30 174 57 202 7 7 70 13 167 17 285 10 543 58 744 139 166 67 289 143 397 247 l69 66 62 -13 c114 -23 239 -13 330 27 46 21 73 19 237 -17z m2485 -616 c59 -34 97 -101 103 -185 6 -87 -8 -128 -57 -176 -115 -112 -300 -59 -342 97 -25 95 34 223 126 271 44 23 122 20 170 -7z m-1100 -1122 l0 -420 -30 0 -30 0 -3 410 c-1 225 0 416 3 423 3 8 16 12 32 10 l28 -3 0 -420z m-716 281 c22 -26 -4 -51 -121 -112 -131 -68 -163 -74 -163 -29 0 28 8 34 115 92 119 65 149 73 169 49z m242 -46 c45 -24 15 -65 -78 -109 -53 -24 -79 -23 -89 4 -9 22 10 40 80 80 71 40 62 38 87 25z m188 -274 c22 -27 -6 -53 -113 -107 -90 -46 -106 -51 -120 -39 -34 28 -15 52 84 107 99 55 130 63 149 39z"/>
    <path d="M10664 9135 c-4 -8 -1 -44 6 -79 6 -35 12 -110 13 -167 2 -99 3 -104 24 -107 19 -3 23 3 29 44 7 50 -11 261 -27 301 -10 26 -37 31 -45 8z"/>
    <path d="M10387 9112 c-22 -25 -21 -45 3 -67 29 -27 74 -10 78 28 6 53 -46 77 -81 39z"/>
    <path d="M9490 9083 c-22 -9 -30 -26 -19 -39 5 -7 28 -9 59 -6 69 6 128 -18 179 -74 34 -38 44 -44 56 -34 22 18 19 25 -22 72 -49 54 -123 88 -188 87 -27 0 -57 -3 -65 -6z"/>
    <path d="M12081 7578 c-14 -39 -63 -330 -57 -344 6 -16 32 -19 41 -5 3 6 18 86 34 178 20 117 26 172 19 181 -15 18 -27 15 -37 -10z"/>
    <path d="M10657 6737 c-8 -22 10 -33 67 -42 70 -10 147 -47 200 -95 45 -41 76 -48 76 -17 0 24 -88 97 -156 129 -77 36 -177 49 -187 25z"/>
    <path d="M11186 8154 c-4 -10 21 -63 65 -137 169 -287 163 -277 187 -277 12 0 25 7 28 15 3 8 -46 102 -112 215 -96 163 -122 200 -140 200 -12 0 -25 -7 -28 -16z"/>
    <path d="M10974 7916 c-8 -21 0 -31 115 -155 73 -78 110 -111 126 -111 41 0 37 28 -12 83 -162 179 -214 221 -229 183z"/>
    <path d="M13155 7716 c-54 -24 -95 -92 -95 -158 0 -66 64 -128 132 -128 33 0 85 35 109 72 34 56 10 168 -44 202 -35 22 -70 26 -102 12z"/>
    <path d="M6406 9228 c-201 -229 -191 -534 24 -761 113 -120 191 -158 198 -96 2 21 -5 31 -38 53 -77 51 -159 146 -203 235 l-42 84 0 117 c0 114 1 118 37 191 20 40 57 98 82 127 48 56 54 70 34 90 -22 22 -46 12 -92 -40z"/>
    <path d="M6038 8379 c-28 -16 -21 -41 31 -115 134 -191 400 -354 639 -393 68 -11 87 -8 96 15 12 30 -12 51 -65 58 -123 16 -299 89 -414 171 -70 50 -169 151 -211 215 -40 62 -47 67 -76 49z"/>
    <path d="M6972 7538 c-18 -23 -24 -134 -12 -234 36 -303 193 -598 460 -864 164 -165 330 -279 513 -355 107 -44 142 -44 142 0 0 27 -5 31 -70 55 -401 150 -781 547 -919 960 -43 130 -56 206 -56 336 0 84 -3 103 -16 108 -23 9 -30 8 -42 -6z"/>
    <path d="M14648 7248 c-9 -7 -29 -44 -44 -81 -14 -37 -49 -105 -76 -150 -163 -269 -409 -463 -696 -550 -62 -19 -118 -39 -123 -44 -6 -6 -8 -20 -4 -32 9 -29 53 -28 154 4 341 108 634 362 790 684 47 98 59 145 41 166 -15 18 -21 19 -42 3z"/>
    <path d="M14410 6319 c-152 -139 -374 -249 -646 -319 -133 -35 -134 -35 -134 -59 0 -55 63 -49 288 25 223 73 430 187 560 309 49 46 55 56 46 72 -21 34 -55 26 -114 -28z"/>
    <path d="M6147 6114 c-26 -27 17 -176 78 -268 65 -99 189 -191 317 -236 60 -21 88 -13 88 24 0 21 -10 28 -70 51 -184 70 -296 190 -340 365 -14 56 -20 65 -41 68 -14 2 -28 0 -32 -4z"/>
    <path d="M16396 7984 c-32 -31 -62 -8 413 -310 194 -123 362 -224 372 -224 22 0 32 15 25 38 -4 9 -57 48 -119 87 -61 38 -168 106 -237 150 -111 72 -396 251 -427 269 -6 3 -19 -1 -27 -10z"/>
    <path d="M16216 7735 c-7 -19 2 -42 19 -49 8 -3 93 -55 189 -116 98 -62 183 -110 193 -108 10 2 19 13 21 24 3 18 -18 35 -113 95 -63 41 -148 95 -188 121 -75 49 -111 59 -121 33z"/>
    <path d="M16053 7454 c-10 -26 10 -40 402 -286 61 -38 150 -94 198 -124 90 -57 117 -62 117 -22 0 22 -66 68 -348 243 -27 17 -91 58 -143 91 -155 101 -178 114 -199 114 -11 0 -23 -7 -27 -16z"/>
    <path d="M16787 7383 c-21 -20 1 -44 96 -106 106 -68 140 -80 151 -51 9 23 3 29 -105 99 -94 61 -126 74 -142 58z"/>
    <path d="M4342 4548 c-22 -22 -13 -37 68 -119 44 -44 80 -83 80 -87 0 -4 -36 -43 -80 -87 -82 -82 -98 -117 -55 -123 14 -2 45 22 100 78 44 44 84 80 89 80 6 0 45 -36 88 -80 76 -79 110 -96 122 -64 9 22 -4 41 -83 119 -39 38 -71 74 -71 79 0 5 36 47 81 92 71 73 79 85 69 103 -6 12 -16 21 -23 21 -7 0 -50 -38 -97 -85 l-84 -85 -87 85 c-47 47 -91 85 -96 85 -5 0 -14 -5 -21 -12z"/>
  </g>
</svg>