<?xml version="1.0" encoding="utf-8"?>
<svg viewBox="0 0 960 540" xmlns="http://www.w3.org/2000/svg">
  <path d="M0 155L22.8 152.7C45.7 150.3 91.3 145.7 137 145C182.7 144.3 228.3 147.7 274 149.8C319.7 152 365.3 153 411.2 148.3C457 143.7 503 133.3 548.8 136.3C594.7 139.3 640.3 155.7 686 158C731.7 160.3 777.3 148.7 823 144C868.7 139.3 914.3 141.7 937.2 142.8L960 144L960 0L937.2 0C914.3 0 868.7 0 823 0C777.3 0 731.7 0 686 0C640.3 0 594.7 0 548.8 0C503 0 457 0 411.2 0C365.3 0 319.7 0 274 0C228.3 0 182.7 0 137 0C91.3 0 45.7 0 22.8 0L0 0Z" fill="#fa7268"/>
  <path d="M0 103L22.8 106.5C45.7 110 91.3 117 137 110C182.7 103 228.3 82 274 79C319.7 76 365.3 91 411.2 94.5C457 98 503 90 548.8 90.7C594.7 91.3 640.3 100.7 686 104.3C731.7 108 777.3 106 823 108C868.7 110 914.3 116 937.2 119L960 122L960 0L937.2 0C914.3 0 868.7 0 823 0C777.3 0 731.7 0 686 0C640.3 0 594.7 0 548.8 0C503 0 457 0 411.2 0C365.3 0 319.7 0 274 0C228.3 0 182.7 0 137 0C91.3 0 45.7 0 22.8 0L0 0Z" fill="#b8509c"/>
  <path d="M0 73L22.8 72.2C45.7 71.3 91.3 69.7 137 65.8C182.7 62 228.3 56 274 56.7C319.7 57.3 365.3 64.7 411.2 66.8C457 69 503 66 548.8 65.2C594.7 64.3 640.3 65.7 686 60.7C731.7 55.7 777.3 44.3 823 41.8C868.7 39.3 914.3 45.7 937.2 48.8L960 52L960 0L937.2 0C914.3 0 868.7 0 823 0C777.3 0 731.7 0 686 0C640.3 0 594.7 0 548.8 0C503 0 457 0 411.2 0C365.3 0 319.7 0 274 0C228.3 0 182.7 0 137 0C91.3 0 45.7 0 22.8 0L0 0Z" fill="#0152a3"/>
</svg>