<?xml version="1.0" encoding="utf-8"?>
<svg xmlns="http://www.w3.org/2000/svg" style="margin: auto; background: none; display: block; shape-rendering: auto;" width="280" height="250" preserveAspectRatio="xMidYMid">
  <style type="text/css">
  text {
    text-anchor: middle; font-size: 71px; opacity: 0;
  }
  </style>
  <g style="transform-origin: 140px 125px; transform: scale(1.16393);">
    <g transform="translate(140,125)">
      <g transform="translate(0,0)">
        <g class="path" style="opacity: 1; transform-origin: -94.42px 1.21247px; animation: 1s linear -0.605s infinite normal forwards running fade-2772c0c5-fddd-43a9-ac00-7e6f93b6890d;">
          <path d="M23.29 0.60L23.29 0.60L23.29 0.60Q27.88 0.60 28.36-4.94L28.36-4.94L28.36-4.94Q28.42-5.30 28.42-5.60L28.42-5.60L26.87-5.66L26.87-5.66Q26.45-1.31 24.54-1.25L24.54-1.25L24.54-1.25Q22.99-1.37 22.93-4.35L22.93-4.35L22.93-16.92L22.93-16.92Q22.93-25.44 14.42-25.91L14.42-25.91L14.42-25.91Q13.88-25.91 13.34-25.91L13.34-25.91L13.34-25.91Q6.67-25.91 4.41-22.82L4.41-22.82L4.41-22.82Q3.69-21.80 3.69-20.79L3.69-20.79L3.69-20.79Q3.69-18.94 5.42-18.65L5.42-18.65L5.42-18.65Q5.72-18.59 6.02-18.59L6.02-18.59L6.02-18.59Q7.39-18.59 8.04-20.31L8.04-20.31L8.04-20.31Q8.88-22.52 9.17-22.93L9.17-22.93L9.17-22.93Q10.31-24.42 12.69-24.42L12.69-24.42L12.69-24.42Q18.29-24.07 18.47-18.29L18.47-18.29L18.47-14.54L18.47-14.54Q4.47-14.54 2.44-8.70L2.44-8.70L2.44-8.70Q2.08-7.57 2.08-6.25L2.08-6.25L2.08-6.25Q2.08-1.73 6.08-0.06L6.08-0.06L6.08-0.06Q7.68 0.60 9.47 0.60L9.47 0.60L9.47 0.60Q13.82 0.60 16.80-2.38L16.80-2.38L16.80-2.38Q17.87-3.51 18.41-4.77L18.41-4.77L18.41-4.77Q19.12 0.54 23.29 0.60zM11.44-1.79L11.44-1.79L11.44-1.79Q7.80-1.79 6.97-5.42L6.97-5.42L6.97-5.42Q6.79-6.25 6.79-7.27L6.79-7.27L6.79-7.27Q6.79-11.26 11.38-12.33L11.38-12.33L11.38-12.33Q13.82-12.87 18.47-12.93L18.47-12.93L18.47-8.16L18.47-8.16Q17.57-4.05 14.12-2.38L14.12-2.38L14.12-2.38Q12.75-1.79 11.44-1.79" fill="#0152a3" stroke="none" stroke-width="none" transform="translate(-109.66998291015625,13.867468299865722)" style="fill: rgb(1, 82, 163);"></path>
        </g>
        <g class="path" style="opacity: 1; transform-origin: -70.83px -1.91753px; animation: 1s linear -0.55s infinite normal forwards running fade-2772c0c5-fddd-43a9-ac00-7e6f93b6890d;">
          <path d="M29.90-25.32L29.90-23.83L34.07-23.83L34.07-7.03L34.07-7.03Q34.49 0.42 40.92 0.66L40.92 0.66L40.92 0.66Q46.41 0.66 47.78-6.08L47.78-6.08L47.78-6.08Q47.78-6.14 47.78-6.20L47.78-6.20L46.17-6.49L46.17-6.49Q44.68-1.55 41.82-1.13L41.82-1.13L41.82-1.13Q38.60-1.25 38.54-5.72L38.54-5.72L38.54-23.83L47.78-23.83L47.78-25.32L38.54-25.32L38.54-32.23L34.07-30.98L34.07-25.32L29.90-25.32" fill="#0152a3" stroke="none" stroke-width="none" transform="translate(-109.66998291015625,13.867468299865722)" style="fill: rgb(1, 82, 163);"></path>
        </g>
        <g class="path" style="opacity: 1; transform-origin: -52.81px -5.49253px; animation: 1s linear -0.495s infinite normal forwards running fade-2772c0c5-fddd-43a9-ac00-7e6f93b6890d;">
          <path d="M62.19-1.49L62.19-1.49L58.97-1.49L58.97-38.72L50.04-38.72L50.04-37.23L54.51-37.23L54.51-5.06L54.51-5.06Q54.51-2.32 52.96-1.79L52.96-1.79L52.96-1.79Q52.06-1.49 50.04-1.49L50.04-1.49L50.04 0L63.68 0L63.68 0Q63.68-1.31 62.79-1.43L62.79-1.43L62.79-1.43Q62.55-1.49 62.19-1.49" fill="#0152a3" stroke="none" stroke-width="none" transform="translate(-109.66998291015625,13.867468299865722)" style="fill: rgb(1, 82, 163);"></path>
        </g>
        <g class="path" style="opacity: 1; transform-origin: -29.135px 1.21247px; animation: 1s linear -0.44s infinite normal forwards running fade-2772c0c5-fddd-43a9-ac00-7e6f93b6890d;">
          <path d="M88.58 0.60L88.58 0.60L88.58 0.60Q93.17 0.60 93.64-4.94L93.64-4.94L93.64-4.94Q93.70-5.30 93.70-5.60L93.70-5.60L92.16-5.66L92.16-5.66Q91.74-1.31 89.83-1.25L89.83-1.25L89.83-1.25Q88.28-1.37 88.22-4.35L88.22-4.35L88.22-16.92L88.22-16.92Q88.22-25.44 79.71-25.91L79.71-25.91L79.71-25.91Q79.17-25.91 78.63-25.91L78.63-25.91L78.63-25.91Q71.96-25.91 69.70-22.82L69.70-22.82L69.70-22.82Q68.98-21.80 68.98-20.79L68.98-20.79L68.98-20.79Q68.98-18.94 70.71-18.65L70.71-18.65L70.71-18.65Q71.01-18.59 71.31-18.59L71.31-18.59L71.31-18.59Q72.68-18.59 73.33-20.31L73.33-20.31L73.33-20.31Q74.17-22.52 74.46-22.93L74.46-22.93L74.46-22.93Q75.59-24.42 77.98-24.42L77.98-24.42L77.98-24.42Q83.58-24.07 83.76-18.29L83.76-18.29L83.76-14.54L83.76-14.54Q69.76-14.54 67.73-8.70L67.73-8.70L67.73-8.70Q67.37-7.57 67.37-6.25L67.37-6.25L67.37-6.25Q67.37-1.73 71.37-0.06L71.37-0.06L71.37-0.06Q72.97 0.60 74.76 0.60L74.76 0.60L74.76 0.60Q79.11 0.60 82.09-2.38L82.09-2.38L82.09-2.38Q83.16-3.51 83.70-4.77L83.70-4.77L83.70-4.77Q84.41 0.54 88.58 0.60zM76.73-1.79L76.73-1.79L76.73-1.79Q73.09-1.79 72.26-5.42L72.26-5.42L72.26-5.42Q72.08-6.25 72.08-7.27L72.08-7.27L72.08-7.27Q72.08-11.26 76.67-12.33L76.67-12.33L76.67-12.33Q79.11-12.87 83.76-12.93L83.76-12.93L83.76-8.16L83.76-8.16Q82.86-4.05 79.41-2.38L79.41-2.38L79.41-2.38Q78.04-1.79 76.73-1.79" fill="#0152a3" stroke="none" stroke-width="none" transform="translate(-109.66998291015625,13.867468299865722)" style="fill: rgb(1, 82, 163);"></path>
        </g>
        <g class="path" style="opacity: 1; transform-origin: 1.40002px 0.912468px; animation: 1s linear -0.385s infinite normal forwards running fade-2772c0c5-fddd-43a9-ac00-7e6f93b6890d;">
          <path d="M107.41-1.49L107.41-1.49L104.72-1.49L104.72-14.36L104.72-14.36Q104.90-19.90 108.66-22.34L108.66-22.34L108.66-22.34Q110.26-23.35 111.93-23.35L111.93-23.35L111.93-23.35Q115.57-23.35 116.88-19.96L116.88-19.96L116.88-19.96Q117.41-18.59 117.41-16.86L117.41-16.86L117.41-5.06L117.41-5.06Q117.41-2.32 115.86-1.79L115.86-1.79L115.86-1.79Q114.97-1.49 112.95-1.49L112.95-1.49L112.95 0L126.35 0L126.35 0Q126.35-1.31 125.46-1.43L125.46-1.43L125.46-1.43Q125.22-1.49 124.86-1.49L124.86-1.49L121.88-1.49L121.88-16.26L121.88-16.26Q121.88-22.22 117.77-24.78L117.77-24.78L117.77-24.78Q115.86-25.91 113.66-25.91L113.66-25.91L113.66-25.91Q109.25-25.91 106.39-22.40L106.39-22.40L106.39-22.40Q105.32-21.03 104.67-19.36L104.67-19.36L104.43-25.32L95.79-25.32L95.79-23.83L100.26-23.83L100.26-5.06L100.26-5.06Q100.26-2.32 98.71-1.79L98.71-1.79L98.71-1.79Q97.81-1.49 95.79-1.49L95.79-1.49L95.79 0L108.89 0L108.89 0Q108.89-1.31 108.00-1.43L108.00-1.43L108.00-1.43Q107.76-1.49 107.41-1.49" fill="#0152a3" stroke="none" stroke-width="none" transform="translate(-109.66998291015625,13.867468299865722)" style="fill: rgb(1, 82, 163);"></path>
        </g>
        <g class="path" style="opacity: 1; transform-origin: 28.295px -1.91753px; animation: 1s linear -0.33s infinite normal forwards running fade-2772c0c5-fddd-43a9-ac00-7e6f93b6890d;">
          <path d="M129.03-25.32L129.03-23.83L133.20-23.83L133.20-7.03L133.20-7.03Q133.62 0.42 140.05 0.66L140.05 0.66L140.05 0.66Q145.53 0.66 146.90-6.08L146.90-6.08L146.90-6.08Q146.90-6.14 146.90-6.20L146.90-6.20L145.29-6.49L145.29-6.49Q143.80-1.55 140.94-1.13L140.94-1.13L140.94-1.13Q137.73-1.25 137.67-5.72L137.67-5.72L137.67-23.83L146.90-23.83L146.90-25.32L137.67-25.32L137.67-32.23L133.20-30.98L133.20-25.32L129.03-25.32" fill="#0152a3" stroke="none" stroke-width="none" transform="translate(-109.66998291015625,13.867468299865722)" style="fill: rgb(1, 82, 163);"></path>
        </g>
        <g class="path" style="opacity: 1; transform-origin: 46.17px 1.20747px; animation: 1s linear -0.275s infinite normal forwards running fade-2772c0c5-fddd-43a9-ac00-7e6f93b6890d;">
          <path d="M161.20-1.49L161.20-1.49L158.22-1.49L158.22-25.32L148.99-25.32L148.99-23.83L153.75-23.83L153.75-5.06L153.75-5.06Q153.75-2.32 151.90-1.73L151.90-1.73L151.90-1.73Q151.01-1.49 148.99-1.49L148.99-1.49L148.99 0L162.69 0L162.69 0Q162.69-1.31 161.79-1.43L161.79-1.43L161.79-1.43Q161.50-1.49 161.20-1.49" fill="#0152a3" stroke="none" stroke-width="none" transform="translate(-109.66998291015625,13.867468299865722)" style="fill: rgb(1, 82, 163);"></path>
        </g>
        <g class="path" style="opacity: 1; transform-origin: 46.015px -20.1475px; animation: 1s linear -0.22s infinite normal forwards running fade-2772c0c5-fddd-43a9-ac00-7e6f93b6890d;">
          <path d="M158.93-34.01L158.93-34.01L158.93-34.01Q158.93-36.10 157.09-36.99L157.09-36.99L157.09-36.99Q156.37-37.29 155.72-37.29L155.72-37.29L155.72-37.29Q153.63-37.29 152.74-35.38L152.74-35.38L152.74-35.38Q152.44-34.73 152.44-34.01L152.44-34.01L152.44-34.01Q152.44-31.81 154.41-30.98L154.41-30.98L154.41-30.98Q155.06-30.74 155.72-30.74L155.72-30.74L155.72-30.74Q157.80-30.74 158.64-32.64L158.64-32.64L158.64-32.64Q158.93-33.30 158.93-34.01" fill="#0152a3" stroke="none" stroke-width="none" transform="translate(-109.66998291015625,13.867468299865722)" style="fill: rgb(1, 82, 163);"></path>
        </g>
        <g class="path" style="opacity: 1; transform-origin: 67.015px 1.03247px; animation: 1s linear -0.165s infinite normal forwards running fade-2772c0c5-fddd-43a9-ac00-7e6f93b6890d;">
          <path d="M175.79-1.01L175.79-1.01L175.79-1.01Q179.90-1.01 181.33-3.51L181.33-3.51L181.33-3.51Q181.87-4.41 181.87-5.48L181.87-5.48L181.87-5.48Q181.87-7.98 178.23-9.77L178.23-9.77L178.23-9.77Q177.46-10.19 175.67-10.96L175.67-10.96L175.67-10.96Q170.79-12.99 169.18-14.77L169.18-14.77L169.18-14.77Q167.45-16.74 167.45-19.36L167.45-19.36L167.45-19.36Q167.45-23.47 171.98-25.14L171.98-25.14L171.98-25.14Q174.06-25.91 176.51-25.91L176.51-25.91L176.51-25.91Q180.44-25.91 183.30-24.25L183.30-24.25L183.30-24.25Q183.30-25.97 184.13-26.21L184.13-26.21L184.13-26.21Q184.49-26.27 184.91-26.27L184.91-26.27L184.91-18.82L183.36-18.82L183.36-18.82Q183.24-24.30 177.28-24.36L177.28-24.36L177.28-24.36Q172.81-24.36 171.74-21.74L171.74-21.74L171.74-21.74Q171.44-21.03 171.44-20.25L171.44-20.25L171.44-20.25Q171.44-17.69 175.14-15.91L175.14-15.91L175.14-15.91Q175.97-15.49 177.76-14.77L177.76-14.77L177.76-14.77Q182.58-12.81 184.19-11.02L184.19-11.02L184.19-11.02Q185.92-9.11 185.92-6.49L185.92-6.49L185.92-6.49Q185.92-1.67 180.80-0.06L180.80-0.06L180.80-0.06Q178.83 0.60 176.51 0.60L176.51 0.60L176.51 0.60Q172.22 0.54 169.06-1.55L169.06-1.55L169.06-1.55Q169.06 0 168.29 0.24L168.29 0.24L168.29 0.24Q167.93 0.30 167.45 0.30L167.45 0.30L167.45-8.76L169.12-8.76L169.12-8.76Q169.24-1.07 175.79-1.01" fill="#0152a3" stroke="none" stroke-width="none" transform="translate(-109.66998291015625,13.867468299865722)" style="fill: rgb(1, 82, 163);"></path>
        </g>
        <g class="path" style="opacity: 1; transform-origin: 84.65px 11.0975px; animation: 1s linear -0.11s infinite normal forwards running fade-2772c0c5-fddd-43a9-ac00-7e6f93b6890d;">
          <path d="M197.36-2.74L197.36-2.74L197.36-2.74Q197.36-4.71 195.57-5.54L195.57-5.54L195.57-5.54Q194.97-5.84 194.32-5.84L194.32-5.84L194.32-5.84Q192.35-5.84 191.58-4.05L191.58-4.05L191.58-4.05Q191.28-3.40 191.28-2.74L191.28-2.74L191.28-2.74Q191.28-0.83 193.01 0L193.01 0L193.01 0Q193.66 0.30 194.32 0.30L194.32 0.30L194.32 0.30Q196.22 0.30 197.06-1.43L197.06-1.43L197.06-1.43Q197.36-2.08 197.36-2.74" fill="#0152a3" stroke="none" stroke-width="none" transform="translate(-109.66998291015625,13.867468299865722)" style="fill: rgb(1, 82, 163);"></path>
        </g>
        <g class="path" style="opacity: 1; transform-origin: 96.68px 11.0975px; animation: 1s linear -0.055s infinite normal forwards running fade-2772c0c5-fddd-43a9-ac00-7e6f93b6890d;">
          <path d="M209.39-2.74L209.39-2.74L209.39-2.74Q209.39-4.71 207.60-5.54L207.60-5.54L207.60-5.54Q207.01-5.84 206.35-5.84L206.35-5.84L206.35-5.84Q204.39-5.84 203.61-4.05L203.61-4.05L203.61-4.05Q203.31-3.40 203.31-2.74L203.31-2.74L203.31-2.74Q203.31-0.83 205.04 0L205.04 0L205.04 0Q205.70 0.30 206.35 0.30L206.35 0.30L206.35 0.30Q208.26 0.30 209.09-1.43L209.09-1.43L209.09-1.43Q209.39-2.08 209.39-2.74" fill="#0152a3" stroke="none" stroke-width="none" transform="translate(-109.66998291015625,13.867468299865722)" style="fill: rgb(1, 82, 163);"></path>
        </g>
        <g class="path" style="opacity: 1; transform-origin: 108.715px 11.0975px; animation: 1s linear 0s infinite normal forwards running fade-2772c0c5-fddd-43a9-ac00-7e6f93b6890d;">
          <path d="M221.42-2.74L221.42-2.74L221.42-2.74Q221.42-4.71 219.64-5.54L219.64-5.54L219.64-5.54Q219.04-5.84 218.38-5.84L218.38-5.84L218.38-5.84Q216.42-5.84 215.64-4.05L215.64-4.05L215.64-4.05Q215.35-3.40 215.35-2.74L215.35-2.74L215.35-2.74Q215.35-0.83 217.07 0L217.07 0L217.07 0Q217.73 0.30 218.38 0.30L218.38 0.30L218.38 0.30Q220.29 0.30 221.13-1.43L221.13-1.43L221.13-1.43Q221.42-2.08 221.42-2.74" fill="#0152a3" stroke="none" stroke-width="none" transform="translate(-109.66998291015625,13.867468299865722)" style="fill: rgb(1, 82, 163);"></path>
        </g>
      </g>
    </g>
  </g>
  <style id="fade-2772c0c5-fddd-43a9-ac00-7e6f93b6890d" data-anikit="">@keyframes fade-2772c0c5-fddd-43a9-ac00-7e6f93b6890d
{
  0% {
    animation-timing-function: cubic-bezier(0.2057,0.573,0.3723,0.9184);
    opacity: 1;
  }
  100% {
    opacity: 0;
  }
}</style>
</svg>