<svg id="visual" viewBox="0 0 900 600" width="900" height="600" xmlns="http://www.w3.org/2000/svg" xmlns:xlink="http://www.w3.org/1999/xlink" version="1.1"><rect x="0" y="0" width="900" height="600" fill="#ffffff"></rect><path d="M0 508L21.5 511C43 514 86 520 128.8 520.2C171.7 520.3 214.3 514.7 257.2 510.3C300 506 343 503 385.8 507.8C428.7 512.7 471.3 525.3 514.2 526.5C557 527.7 600 517.3 642.8 512.2C685.7 507 728.3 507 771.2 510.2C814 513.3 857 519.7 878.5 522.8L900 526L900 601L878.5 601C857 601 814 601 771.2 601C728.3 601 685.7 601 642.8 601C600 601 557 601 514.2 601C471.3 601 428.7 601 385.8 601C343 601 300 601 257.2 601C214.3 601 171.7 601 128.8 601C86 601 43 601 21.5 601L0 601Z" fill="#8f7ef4"></path><path d="M0 533L21.5 532.5C43 532 86 531 128.8 530.2C171.7 529.3 214.3 528.7 257.2 527.2C300 525.7 343 523.3 385.8 527.2C428.7 531 471.3 541 514.2 543.5C557 546 600 541 642.8 538.2C685.7 535.3 728.3 534.7 771.2 538.2C814 541.7 857 549.3 878.5 553.2L900 557L900 601L878.5 601C857 601 814 601 771.2 601C728.3 601 685.7 601 642.8 601C600 601 557 601 514.2 601C471.3 601 428.7 601 385.8 601C343 601 300 601 257.2 601C214.3 601 171.7 601 128.8 601C86 601 43 601 21.5 601L0 601Z" fill="#6770da"></path><path d="M0 551L21.5 550.2C43 549.3 86 547.7 128.8 550C171.7 552.3 214.3 558.7 257.2 559.8C300 561 343 557 385.8 556.2C428.7 555.3 471.3 557.7 514.2 559.8C557 562 600 564 642.8 563.3C685.7 562.7 728.3 559.3 771.2 556C814 552.7 857 549.3 878.5 547.7L900 546L900 601L878.5 601C857 601 814 601 771.2 601C728.3 601 685.7 601 642.8 601C600 601 557 601 514.2 601C471.3 601 428.7 601 385.8 601C343 601 300 601 257.2 601C214.3 601 171.7 601 128.8 601C86 601 43 601 21.5 601L0 601Z" fill="#3e61bf"></path><path d="M0 565L21.5 566.3C43 567.7 86 570.3 128.8 571.3C171.7 572.3 214.3 571.7 257.2 570.3C300 569 343 567 385.8 568.5C428.7 570 471.3 575 514.2 578.3C557 581.7 600 583.3 642.8 580.8C685.7 578.3 728.3 571.7 771.2 571.7C814 571.7 857 578.3 878.5 581.7L900 585L900 601L878.5 601C857 601 814 601 771.2 601C728.3 601 685.7 601 642.8 601C600 601 557 601 514.2 601C471.3 601 428.7 601 385.8 601C343 601 300 601 257.2 601C214.3 601 171.7 601 128.8 601C86 601 43 601 21.5 601L0 601Z" fill="#0152a3"></path></svg>