<svg id="visual" viewBox="0 0 960 540" width="960" height="540" xmlns="http://www.w3.org/2000/svg" xmlns:xlink="http://www.w3.org/1999/xlink" version="1.1"><rect x="0" y="0" width="960" height="540" fill="#ffffff"></rect><path d="M0 342L22.8 351.3C45.7 360.7 91.3 379.3 137 379C182.7 378.7 228.3 359.3 274 350C319.7 340.7 365.3 341.3 411.2 346.7C457 352 503 362 548.8 371.8C594.7 381.7 640.3 391.3 686 387.2C731.7 383 777.3 365 823 356C868.7 347 914.3 347 937.2 347L960 347L960 541L937.2 541C914.3 541 868.7 541 823 541C777.3 541 731.7 541 686 541C640.3 541 594.7 541 548.8 541C503 541 457 541 411.2 541C365.3 541 319.7 541 274 541C228.3 541 182.7 541 137 541C91.3 541 45.7 541 22.8 541L0 541Z" fill="#eceaec"></path><path d="M0 373L22.8 370.8C45.7 368.7 91.3 364.3 137 369.3C182.7 374.3 228.3 388.7 274 394.3C319.7 400 365.3 397 411.2 401C457 405 503 416 548.8 420.3C594.7 424.7 640.3 422.3 686 410.2C731.7 398 777.3 376 823 372.8C868.7 369.7 914.3 385.3 937.2 393.2L960 401L960 541L937.2 541C914.3 541 868.7 541 823 541C777.3 541 731.7 541 686 541C640.3 541 594.7 541 548.8 541C503 541 457 541 411.2 541C365.3 541 319.7 541 274 541C228.3 541 182.7 541 137 541C91.3 541 45.7 541 22.8 541L0 541Z" fill="#ddc2e9"></path><path d="M0 444L22.8 442.8C45.7 441.7 91.3 439.3 137 431.2C182.7 423 228.3 409 274 406.5C319.7 404 365.3 413 411.2 421C457 429 503 436 548.8 441.5C594.7 447 640.3 451 686 445.3C731.7 439.7 777.3 424.3 823 420.3C868.7 416.3 914.3 423.7 937.2 427.3L960 431L960 541L937.2 541C914.3 541 868.7 541 823 541C777.3 541 731.7 541 686 541C640.3 541 594.7 541 548.8 541C503 541 457 541 411.2 541C365.3 541 319.7 541 274 541C228.3 541 182.7 541 137 541C91.3 541 45.7 541 22.8 541L0 541Z" fill="#c09dec"></path><path d="M0 448L22.8 446.7C45.7 445.3 91.3 442.7 137 445.2C182.7 447.7 228.3 455.3 274 457.3C319.7 459.3 365.3 455.7 411.2 456C457 456.3 503 460.7 548.8 464.7C594.7 468.7 640.3 472.3 686 473.8C731.7 475.3 777.3 474.7 823 476.3C868.7 478 914.3 482 937.2 484L960 486L960 541L937.2 541C914.3 541 868.7 541 823 541C777.3 541 731.7 541 686 541C640.3 541 594.7 541 548.8 541C503 541 457 541 411.2 541C365.3 541 319.7 541 274 541C228.3 541 182.7 541 137 541C91.3 541 45.7 541 22.8 541L0 541Z" fill="#8f7ef4"></path><path d="M0 511L22.8 511.8C45.7 512.7 91.3 514.3 137 515.2C182.7 516 228.3 516 274 514.7C319.7 513.3 365.3 510.7 411.2 505.7C457 500.7 503 493.3 548.8 489.2C594.7 485 640.3 484 686 484C731.7 484 777.3 485 823 485.5C868.7 486 914.3 486 937.2 486L960 486L960 541L937.2 541C914.3 541 868.7 541 823 541C777.3 541 731.7 541 686 541C640.3 541 594.7 541 548.8 541C503 541 457 541 411.2 541C365.3 541 319.7 541 274 541C228.3 541 182.7 541 137 541C91.3 541 45.7 541 22.8 541L0 541Z" fill="#0066ff"></path></svg>