<svg id="visual" viewBox="0 0 960 540" width="960" height="540" xmlns="http://www.w3.org/2000/svg" xmlns:xlink="http://www.w3.org/1999/xlink" version="1.1"><rect x="0" y="0" width="960" height="540" fill="#ffffff"></rect><path d="M0 196L22.8 186.7C45.7 177.3 91.3 158.7 137 159C182.7 159.3 228.3 178.7 274 188C319.7 197.3 365.3 196.7 411.2 191.3C457 186 503 176 548.8 166.2C594.7 156.3 640.3 146.7 686 150.8C731.7 155 777.3 173 823 182C868.7 191 914.3 191 937.2 191L960 191L960 0L937.2 0C914.3 0 868.7 0 823 0C777.3 0 731.7 0 686 0C640.3 0 594.7 0 548.8 0C503 0 457 0 411.2 0C365.3 0 319.7 0 274 0C228.3 0 182.7 0 137 0C91.3 0 45.7 0 22.8 0L0 0Z" fill="#eceaec"></path><path d="M0 165L22.8 167.2C45.7 169.3 91.3 173.7 137 168.7C182.7 163.7 228.3 149.3 274 143.7C319.7 138 365.3 141 411.2 137C457 133 503 122 548.8 117.7C594.7 113.3 640.3 115.7 686 127.8C731.7 140 777.3 162 823 165.2C868.7 168.3 914.3 152.7 937.2 144.8L960 137L960 0L937.2 0C914.3 0 868.7 0 823 0C777.3 0 731.7 0 686 0C640.3 0 594.7 0 548.8 0C503 0 457 0 411.2 0C365.3 0 319.7 0 274 0C228.3 0 182.7 0 137 0C91.3 0 45.7 0 22.8 0L0 0Z" fill="#ddc2e9"></path><path d="M0 94L22.8 95.2C45.7 96.3 91.3 98.7 137 106.8C182.7 115 228.3 129 274 131.5C319.7 134 365.3 125 411.2 117C457 109 503 102 548.8 96.5C594.7 91 640.3 87 686 92.7C731.7 98.3 777.3 113.7 823 117.7C868.7 121.7 914.3 114.3 937.2 110.7L960 107L960 0L937.2 0C914.3 0 868.7 0 823 0C777.3 0 731.7 0 686 0C640.3 0 594.7 0 548.8 0C503 0 457 0 411.2 0C365.3 0 319.7 0 274 0C228.3 0 182.7 0 137 0C91.3 0 45.7 0 22.8 0L0 0Z" fill="#c09dec"></path><path d="M0 90L22.8 91.3C45.7 92.7 91.3 95.3 137 92.8C182.7 90.3 228.3 82.7 274 80.7C319.7 78.7 365.3 82.3 411.2 82C457 81.7 503 77.3 548.8 73.3C594.7 69.3 640.3 65.7 686 64.2C731.7 62.7 777.3 63.3 823 61.7C868.7 60 914.3 56 937.2 54L960 52L960 0L937.2 0C914.3 0 868.7 0 823 0C777.3 0 731.7 0 686 0C640.3 0 594.7 0 548.8 0C503 0 457 0 411.2 0C365.3 0 319.7 0 274 0C228.3 0 182.7 0 137 0C91.3 0 45.7 0 22.8 0L0 0Z" fill="#8f7ef4"></path><path d="M0 27L22.8 26.2C45.7 25.3 91.3 23.7 137 22.8C182.7 22 228.3 22 274 23.3C319.7 24.7 365.3 27.3 411.2 32.3C457 37.3 503 44.7 548.8 48.8C594.7 53 640.3 54 686 54C731.7 54 777.3 53 823 52.5C868.7 52 914.3 52 937.2 52L960 52L960 0L937.2 0C914.3 0 868.7 0 823 0C777.3 0 731.7 0 686 0C640.3 0 594.7 0 548.8 0C503 0 457 0 411.2 0C365.3 0 319.7 0 274 0C228.3 0 182.7 0 137 0C91.3 0 45.7 0 22.8 0L0 0Z" fill="#0066ff"></path></svg>