<svg id="visual" viewBox="0 0 960 540" width="960" height="540" xmlns="http://www.w3.org/2000/svg" xmlns:xlink="http://www.w3.org/1999/xlink" version="1.1"><rect x="0" y="0" width="960" height="540" fill="#ffffff"></rect><defs><linearGradient id="grad1_0" x1="43.8%" y1="0%" x2="100%" y2="100%"><stop offset="14.444444444444446%" stop-color="#ffffff" stop-opacity="1"></stop><stop offset="85.55555555555554%" stop-color="#ffffff" stop-opacity="1"></stop></linearGradient></defs><defs><linearGradient id="grad2_0" x1="0%" y1="0%" x2="56.3%" y2="100%"><stop offset="14.444444444444446%" stop-color="#ffffff" stop-opacity="1"></stop><stop offset="85.55555555555554%" stop-color="#ffffff" stop-opacity="1"></stop></linearGradient></defs><g transform="translate(960, 0)"><path d="M0 432C-58.3 425.2 -116.6 418.3 -162.6 392.6C-208.7 367 -242.4 322.4 -283.5 283.5C-324.7 244.7 -373.1 211.6 -399.1 165.3C-425.1 119 -428.5 59.5 -432 0L0 0Z" fill="#FBAE3C"></path></g><g transform="translate(0, 540)"><path d="M0 -432C58.6 -428.3 117.2 -424.6 165.3 -399.1C213.5 -373.7 251.2 -326.5 282.1 -282.1C313.1 -237.8 337.4 -196.2 361.2 -149.6C385.1 -103.1 408.5 -51.5 432 0L0 0Z" fill="#FBAE3C"></path></g></svg>