<svg xmlns="http://www.w3.org/2000/svg"
    xmlns:xlink="http://www.w3.org/1999/xlink" width="500" zoomAndPan="magnify" viewBox="2.82 4.49 366.04 293.45" height="500" preserveAspectRatio="xMidYMid meet" version="1.0">
    <defs>
        <g/>
        <clipPath id="5422863f0c">
            <path d="M 40.777344 4.488281 L 334.222656 4.488281 L 334.222656 297.933594 L 40.777344 297.933594 Z M 40.777344 4.488281 " clip-rule="nonzero"/>
        </clipPath>
        <clipPath id="4dbca7bd31">
            <path d="M 187.5 4.488281 C 106.464844 4.488281 40.777344 70.175781 40.777344 151.210938 C 40.777344 232.242188 106.464844 297.933594 187.5 297.933594 C 268.535156 297.933594 334.222656 232.242188 334.222656 151.210938 C 334.222656 70.175781 268.535156 4.488281 187.5 4.488281 " clip-rule="nonzero"/>
        </clipPath>
        <clipPath id="d218385587">
            <path d="M 22 55.320312 L 353 55.320312 L 353 208 L 22 208 Z M 22 55.320312 " clip-rule="nonzero"/>
        </clipPath>
    </defs>
    <g clip-path="url(#5422863f0c)">
        <g clip-path="url(#4dbca7bd31)">
            <path fill="#1c98ed" d="M 40.777344 4.488281 L 334.222656 4.488281 L 334.222656 297.933594 L 40.777344 297.933594 Z M 40.777344 4.488281 " fill-opacity="1" fill-rule="nonzero"/>
        </g>
    </g>
    <g clip-path="url(#d218385587)">
        <path fill="#fcffff" d="M 67.875 180.148438 C 113.957031 191.265625 132.953125 154.292969 182.21875 154.484375 C 230.023438 154.671875 243.394531 189.605469 288.65625 182.320312 C 310.816406 178.753906 327.542969 167.175781 338.179688 157.996094 L 352.871094 177.273438 C 332.664062 192.59375 302.640625 209.800781 267.59375 207.304688 C 229.15625 204.566406 222.988281 180.855469 185.125 178.984375 C 139.753906 176.738281 124.640625 208.632812 78.308594 206.355469 C 53.617188 205.144531 34.207031 193.78125 22.421875 185.242188 L 36.339844 165.398438 C 42.769531 170.046875 53.5 176.679688 67.875 180.148438 Z M 218.519531 81.835938 C 214.574219 75.257812 209.6875 70.847656 208.785156 70.046875 C 196.121094 58.78125 181.125 57.148438 172.707031 56.230469 C 167.136719 55.625 158.886719 55.300781 148.917969 57.066406 L 153.617188 80.828125 C 157.851562 79.820312 164.871094 78.707031 173.265625 80.132812 C 179.695312 81.230469 189.972656 82.976562 196.324219 91.761719 C 201.5625 98.996094 201.394531 107.21875 201.074219 110.832031 C 189.929688 109.890625 176.925781 109.75 162.558594 111.40625 C 126.726562 115.539062 99.253906 128.910156 82.253906 139.207031 L 94.933594 159.882812 C 107.1875 152.1875 129.273438 140.519531 159.300781 136.121094 C 185.339844 132.308594 206.925781 135.488281 220.34375 138.542969 C 222.382812 132.960938 232.164062 104.589844 218.519531 81.835938 Z M 244.695312 130.574219 C 244.511719 147.644531 258.542969 161.738281 275.515625 161.71875 C 292.316406 161.699219 306.234375 147.859375 306.269531 130.964844 C 306.289062 114.035156 292.34375 100.128906 275.480469 100.128906 C 258.765625 100.128906 244.882812 113.792969 244.695312 130.574219 Z M 244.695312 130.574219 " fill-opacity="1" fill-rule="nonzero"/>
        <path fill="#fcffff" d="M 67.875 180.148438 C 113.957031 191.265625 132.953125 154.292969 182.21875 154.484375 C 230.023438 154.671875 243.394531 189.605469 288.65625 182.320312 C 310.816406 178.753906 327.542969 167.175781 338.179688 157.996094 L 352.871094 177.273438 C 332.664062 192.59375 302.640625 209.800781 267.59375 207.304688 C 229.15625 204.566406 222.988281 180.855469 185.125 178.984375 C 139.753906 176.738281 124.640625 208.632812 78.308594 206.355469 C 53.617188 205.144531 34.207031 193.78125 22.421875 185.242188 L 36.339844 165.398438 C 42.769531 170.046875 53.5 176.679688 67.875 180.148438 Z M 218.519531 81.835938 C 214.574219 75.257812 209.6875 70.847656 208.785156 70.046875 C 196.121094 58.78125 181.125 57.148438 172.707031 56.230469 C 167.136719 55.625 158.886719 55.300781 148.917969 57.066406 L 153.617188 80.828125 C 157.851562 79.820312 164.871094 78.707031 173.265625 80.132812 C 179.695312 81.230469 189.972656 82.976562 196.324219 91.761719 C 201.5625 98.996094 201.394531 107.21875 201.074219 110.832031 C 189.929688 109.890625 176.925781 109.75 162.558594 111.40625 C 126.726562 115.539062 99.253906 128.910156 82.253906 139.207031 L 94.933594 159.882812 C 107.1875 152.1875 129.273438 140.519531 159.300781 136.121094 C 185.339844 132.308594 206.925781 135.488281 220.34375 138.542969 C 222.382812 132.960938 232.164062 104.589844 218.519531 81.835938 Z M 244.695312 130.574219 C 244.511719 147.644531 258.542969 161.738281 275.515625 161.71875 C 292.316406 161.699219 306.234375 147.859375 306.269531 130.964844 C 306.289062 114.035156 292.34375 100.128906 275.480469 100.128906 C 258.765625 100.128906 244.882812 113.792969 244.695312 130.574219 Z M 244.695312 130.574219 " fill-opacity="1" fill-rule="nonzero"/>
    </g>
    <g fill="#fcffff" fill-opacity="1">
        <g transform="translate(2.900986, 291.027854)">
            <g>
                <path d="M 43.328125 -13.765625 L 14.078125 -13.765625 L 8.015625 0 L -0.078125 0 L 24.84375 -55.046875 L 32.640625 -55.046875 L 57.640625 0 L 49.390625 0 Z M 40.578125 -20.046875 L 28.703125 -47.03125 L 16.828125 -20.046875 Z M 40.578125 -20.046875 "/>
            </g>
        </g>
    </g>
    <g fill="#fcffff" fill-opacity="1">
        <g transform="translate(57.315875, 291.027854)">
            <g>
                <path d="M 19.1875 -48.203125 L 0.3125 -48.203125 L 0.3125 -55.046875 L 45.84375 -55.046875 L 45.84375 -48.203125 L 26.96875 -48.203125 L 26.96875 0 L 19.1875 0 Z M 19.1875 -48.203125 "/>
            </g>
        </g>
    </g>
    <g fill="#fcffff" fill-opacity="1">
        <g transform="translate(100.328647, 291.027854)">
            <g>
                <path d="M 8.25 -55.046875 L 16.125 -55.046875 L 16.125 -6.84375 L 45.921875 -6.84375 L 45.921875 0 L 8.25 0 Z M 8.25 -55.046875 "/>
            </g>
        </g>
    </g>
    <g fill="#fcffff" fill-opacity="1">
        <g transform="translate(143.891851, 291.027854)">
            <g>
                <path d="M 43.328125 -13.765625 L 14.078125 -13.765625 L 8.015625 0 L -0.078125 0 L 24.84375 -55.046875 L 32.640625 -55.046875 L 57.640625 0 L 49.390625 0 Z M 40.578125 -20.046875 L 28.703125 -47.03125 L 16.828125 -20.046875 Z M 40.578125 -20.046875 "/>
            </g>
        </g>
    </g>
    <g fill="#fcffff" fill-opacity="1">
        <g transform="translate(198.306739, 291.027854)">
            <g>
                <path d="M 55.59375 -55.046875 L 55.59375 0 L 49.15625 0 L 16.125 -41.046875 L 16.125 0 L 8.25 0 L 8.25 -55.046875 L 14.703125 -55.046875 L 47.734375 -14 L 47.734375 -55.046875 Z M 55.59375 -55.046875 "/>
            </g>
        </g>
    </g>
    <g fill="#fcffff" fill-opacity="1">
        <g transform="translate(259.012458, 291.027854)">
            <g>
                <path d="M 19.1875 -48.203125 L 0.3125 -48.203125 L 0.3125 -55.046875 L 45.84375 -55.046875 L 45.84375 -48.203125 L 26.96875 -48.203125 L 26.96875 0 L 19.1875 0 Z M 19.1875 -48.203125 "/>
            </g>
        </g>
    </g>
    <g fill="#fcffff" fill-opacity="1">
        <g transform="translate(302.025229, 291.027854)">
            <g>
                <path d="M 8.25 -55.046875 L 16.125 -55.046875 L 16.125 0 L 8.25 0 Z M 8.25 -55.046875 "/>
            </g>
        </g>
    </g>
    <g fill="#fcffff" fill-opacity="1">
        <g transform="translate(323.255991, 291.027854)">
            <g>
                <path d="M 24.296875 0.625 C 20.160156 0.625 16.164062 -0.015625 12.3125 -1.296875 C 8.457031 -2.578125 5.425781 -4.242188 3.21875 -6.296875 L 6.140625 -12.421875 C 8.234375 -10.535156 10.914062 -9.003906 14.1875 -7.828125 C 17.46875 -6.648438 20.835938 -6.0625 24.296875 -6.0625 C 28.859375 -6.0625 32.265625 -6.832031 34.515625 -8.375 C 36.773438 -9.914062 37.90625 -11.972656 37.90625 -14.546875 C 37.90625 -16.429688 37.285156 -17.960938 36.046875 -19.140625 C 34.816406 -20.328125 33.296875 -21.234375 31.484375 -21.859375 C 29.679688 -22.492188 27.128906 -23.203125 23.828125 -23.984375 C 19.679688 -24.984375 16.335938 -25.976562 13.796875 -26.96875 C 11.253906 -27.96875 9.078125 -29.503906 7.265625 -31.578125 C 5.460938 -33.648438 4.5625 -36.441406 4.5625 -39.953125 C 4.5625 -42.890625 5.332031 -45.535156 6.875 -47.890625 C 8.425781 -50.253906 10.773438 -52.140625 13.921875 -53.546875 C 17.066406 -54.960938 20.972656 -55.671875 25.640625 -55.671875 C 28.890625 -55.671875 32.085938 -55.25 35.234375 -54.40625 C 38.378906 -53.570312 41.078125 -52.367188 43.328125 -50.796875 L 40.734375 -44.515625 C 38.429688 -45.984375 35.96875 -47.097656 33.34375 -47.859375 C 30.71875 -48.617188 28.148438 -49 25.640625 -49 C 21.179688 -49 17.835938 -48.1875 15.609375 -46.5625 C 13.378906 -44.9375 12.265625 -42.835938 12.265625 -40.265625 C 12.265625 -38.378906 12.894531 -36.84375 14.15625 -35.65625 C 15.414062 -34.476562 16.972656 -33.5625 18.828125 -32.90625 C 20.691406 -32.25 23.222656 -31.554688 26.421875 -30.828125 C 30.566406 -29.828125 33.894531 -28.828125 36.40625 -27.828125 C 38.925781 -26.835938 41.085938 -25.316406 42.890625 -23.265625 C 44.703125 -21.222656 45.609375 -18.472656 45.609375 -15.015625 C 45.609375 -12.128906 44.820312 -9.492188 43.25 -7.109375 C 41.675781 -4.722656 39.289062 -2.835938 36.09375 -1.453125 C 32.894531 -0.0664062 28.960938 0.625 24.296875 0.625 Z M 24.296875 0.625 "/>
            </g>
        </g>
    </g>
</svg>